<svg width="100" height="78" viewBox="0 0 100 78" fill="none" xmlns="http://www.w3.org/2000/svg">
<path d="M97.4576 54.4184H79.3559C79.5575 52.9164 79.6594 51.401 79.661 49.8835C79.661 41.4644 76.536 33.3901 70.9735 27.4369C65.411 21.4836 57.8666 18.1391 50 18.1391C42.1334 18.1391 34.589 21.4836 29.0265 27.4369C23.464 33.3901 20.339 41.4644 20.339 49.8835C20.3406 51.401 20.4425 52.9164 20.6441 54.4184H2.54237C1.86809 54.4184 1.22143 54.7051 0.744644 55.2154C0.267856 55.7257 0 56.4178 0 57.1394C0 57.861 0.267856 58.5531 0.744644 59.0634C1.22143 59.5737 1.86809 59.8603 2.54237 59.8603H97.4576C98.1319 59.8603 98.7786 59.5737 99.2554 59.0634C99.7321 58.5531 100 57.861 100 57.1394C100 56.4178 99.7321 55.7257 99.2554 55.2154C98.7786 54.7051 98.1319 54.4184 97.4576 54.4184ZM25.4237 49.8835C25.4233 46.2373 26.1311 42.6307 27.5025 39.2929C28.8738 35.955 30.8786 32.9588 33.3896 30.4944C35.9006 28.03 38.8629 26.1513 42.0885 24.9775C45.3141 23.8037 48.7325 23.3605 52.1266 23.676C55.5208 23.9915 58.8166 25.0589 61.8048 26.8103C64.793 28.5617 67.4083 30.9589 69.4847 33.8498C71.561 36.7406 73.0531 40.0619 73.8662 43.6028C74.6792 47.1437 74.7955 50.8269 74.2076 54.4184H25.7924C25.5486 52.9209 25.4253 51.4037 25.4237 49.8835ZM86.4407 75.2791C86.4407 76.0007 86.1728 76.6928 85.696 77.2031C85.2193 77.7133 84.5726 78 83.8983 78H16.1017C15.4274 78 14.7808 77.7133 14.304 77.2031C13.8272 76.6928 13.5593 76.0007 13.5593 75.2791C13.5593 74.5574 13.8272 73.8653 14.304 73.355C14.7808 72.8448 15.4274 72.5581 16.1017 72.5581H83.8983C84.5726 72.5581 85.2193 72.8448 85.696 73.355C86.1728 73.8653 86.4407 74.5574 86.4407 75.2791ZM27.3856 3.94032C27.0839 3.29445 27.0342 2.54675 27.2476 1.8617C27.4609 1.17666 27.9198 0.610378 28.5233 0.287444C29.1268 -0.0354897 29.8254 -0.0886269 30.4655 0.139722C31.1056 0.368071 31.6347 0.859201 31.9364 1.50507L35.3263 8.76093C35.6275 9.4068 35.6766 10.1543 35.4628 10.8389C35.249 11.5235 34.7899 12.0892 34.1864 12.4115C33.583 12.7339 32.8846 12.7864 32.2449 12.5577C31.6052 12.3289 31.0766 11.8375 30.7754 11.1916L27.3856 3.94032ZM3.65678 26.9006C3.80584 26.5807 4.01233 26.2954 4.26444 26.061C4.51656 25.8265 4.80937 25.6476 5.12613 25.5343C5.4429 25.421 5.77742 25.3756 6.11057 25.4007C6.44373 25.4259 6.769 25.521 7.0678 25.6807L13.8475 29.3086C14.4509 29.631 14.9101 30.1967 15.1238 30.8813C15.3376 31.5659 15.2885 32.3134 14.9873 32.9592C14.6861 33.6051 14.1575 34.0965 13.5178 34.3252C12.8782 34.554 12.1798 34.5015 11.5763 34.1791L4.79661 30.5512C4.49773 30.3917 4.23116 30.1707 4.01211 29.9008C3.79306 29.631 3.62583 29.3176 3.51998 28.9786C3.41413 28.6396 3.37173 28.2816 3.3952 27.925C3.41867 27.5685 3.50756 27.2204 3.65678 26.9006ZM85.0127 32.9592C84.8635 32.6394 84.7746 32.2913 84.7511 31.9348C84.7277 31.5782 84.7701 31.2202 84.8759 30.8812C84.9818 30.5422 85.149 30.2288 85.368 29.959C85.5871 29.6891 85.8537 29.4682 86.1525 29.3086L92.9322 25.6807C93.5357 25.3584 94.2341 25.3058 94.8738 25.5346C95.5135 25.7634 96.042 26.2547 96.3432 26.9006C96.6444 27.5465 96.6935 28.2939 96.4798 28.9785C96.266 29.6632 95.8069 30.2289 95.2034 30.5512L88.4237 34.1791C88.1249 34.3388 87.7997 34.434 87.4665 34.4591C87.1334 34.4842 86.7988 34.4388 86.4821 34.3255C86.1653 34.2122 85.8725 34.0333 85.6204 33.7988C85.3683 33.5644 85.1618 33.2791 85.0127 32.9592ZM64.6737 8.76093L68.0636 1.50507C68.3653 0.859201 68.8944 0.368071 69.5345 0.139722C70.1746 -0.0886269 70.8732 -0.0354897 71.4767 0.287444C72.0802 0.610378 72.5391 1.17666 72.7524 1.8617C72.9658 2.54675 72.9161 3.29445 72.6144 3.94032L69.2246 11.1962C68.9234 11.842 68.3948 12.3334 67.7551 12.5622C67.1154 12.791 66.417 12.7384 65.8136 12.4161C65.2101 12.0937 64.751 11.528 64.5372 10.8434C64.3234 10.1588 64.3726 9.41134 64.6737 8.76547V8.76093Z" fill="#17858A"/>
</svg>
