<svg width="252" height="62" viewBox="0 0 252 62" fill="none" xmlns="http://www.w3.org/2000/svg">
<path d="M11.124 8.44H13.248L23.868 34H21.204L17.892 26.008H6.408L3.132 34H0.432L11.124 8.44ZM17.316 24.028L12.168 11.392L6.948 24.028H17.316ZM40.4789 34.18C38.6789 34.18 37.0469 33.82 35.5829 33.1C34.1189 32.356 32.8589 31.372 31.8029 30.148C30.7469 28.924 29.9309 27.544 29.3549 26.008C28.7789 24.448 28.4909 22.852 28.4909 21.22C28.4909 19.516 28.7909 17.896 29.3909 16.36C29.9909 14.8 30.8309 13.42 31.9109 12.22C33.0149 10.996 34.2989 10.036 35.7629 9.34C37.2269 8.62 38.8109 8.26 40.5149 8.26C42.3149 8.26 43.9469 8.632 45.4109 9.376C46.8749 10.12 48.1229 11.116 49.1549 12.364C50.2109 13.612 51.0269 15.004 51.6029 16.54C52.1789 18.076 52.4669 19.648 52.4669 21.256C52.4669 22.96 52.1669 24.592 51.5669 26.152C50.9669 27.688 50.1269 29.068 49.0469 30.292C47.9669 31.492 46.6949 32.44 45.2309 33.136C43.7669 33.832 42.1829 34.18 40.4789 34.18ZM40.4789 31.912C41.9429 31.912 43.2509 31.612 44.4029 31.012C45.5789 30.388 46.5749 29.572 47.3909 28.564C48.2309 27.532 48.8669 26.38 49.2989 25.108C49.7309 23.836 49.9469 22.54 49.9469 21.22C49.9469 19.828 49.7189 18.496 49.2629 17.224C48.8069 15.928 48.1469 14.788 47.2829 13.804C46.4429 12.796 45.4469 12.004 44.2949 11.428C43.1429 10.828 41.8709 10.528 40.4789 10.528C39.0389 10.528 37.7309 10.84 36.5549 11.464C35.4029 12.064 34.4069 12.88 33.5669 13.912C32.7509 14.92 32.1149 16.06 31.6589 17.332C31.2269 18.604 31.0109 19.9 31.0109 21.22C31.0109 22.612 31.2389 23.956 31.6949 25.252C32.1509 26.524 32.7989 27.664 33.6389 28.672C34.4789 29.656 35.4749 30.448 36.6269 31.048C37.8029 31.624 39.0869 31.912 40.4789 31.912ZM42.7829 26.152H45.2669L51.8909 34H49.4069L42.7829 26.152ZM71.1518 34.18C69.1358 34.18 67.4318 33.82 66.0398 33.1C64.6478 32.38 63.5438 31.42 62.7278 30.22C61.9118 28.996 61.3118 27.616 60.9278 26.08C60.5678 24.544 60.3878 22.96 60.3878 21.328V8.44H62.8718V21.328C62.8718 22.648 63.0038 23.944 63.2678 25.216C63.5558 26.488 64.0118 27.628 64.6358 28.636C65.2598 29.644 66.0998 30.448 67.1558 31.048C68.2118 31.624 69.5318 31.912 71.1158 31.912C72.7478 31.912 74.0918 31.612 75.1478 31.012C76.2278 30.388 77.0678 29.572 77.6678 28.564C78.2918 27.556 78.7358 26.428 78.9998 25.18C79.2638 23.908 79.3958 22.624 79.3958 21.328V8.44H81.9158V21.328C81.9158 23.032 81.7238 24.664 81.3398 26.224C80.9558 27.784 80.3318 29.152 79.4678 30.328C78.6278 31.504 77.5238 32.44 76.1558 33.136C74.7878 33.832 73.1198 34.18 71.1518 34.18ZM98.3888 8.44H100.513L111.133 34H108.469L105.157 26.008H93.6728L90.3968 34H87.6968L98.3888 8.44ZM104.581 24.028L99.4328 11.392L94.2128 24.028H104.581ZM152.692 34V13.192L143.44 29.356H141.856L132.568 13.192V34H130.048V8.44H132.64L142.612 25.936L152.656 8.44H155.212V34H152.692ZM173.138 8.44H175.262L185.882 34H183.218L179.906 26.008H168.422L165.146 34H162.446L173.138 8.44ZM179.33 24.028L174.182 11.392L168.962 24.028H179.33ZM193.146 34V8.44H203.946C205.05 8.44 206.058 8.668 206.97 9.124C207.882 9.58 208.674 10.204 209.346 10.996C210.042 11.764 210.57 12.628 210.93 13.588C211.314 14.524 211.506 15.484 211.506 16.468C211.506 17.692 211.266 18.844 210.786 19.924C210.33 21.004 209.67 21.916 208.806 22.66C207.966 23.404 206.97 23.896 205.818 24.136L212.082 34H209.238L203.226 24.568H195.666V34H193.146ZM195.666 22.336H204.018C205.026 22.336 205.902 22.06 206.646 21.508C207.39 20.956 207.966 20.236 208.374 19.348C208.782 18.436 208.986 17.476 208.986 16.468C208.986 15.436 208.746 14.488 208.266 13.624C207.81 12.736 207.186 12.028 206.394 11.5C205.626 10.948 204.762 10.672 203.802 10.672H195.666V22.336ZM220.266 34V8.44H222.786V34H220.266ZM247.735 13.228C247.375 12.82 246.955 12.46 246.475 12.148C245.995 11.812 245.455 11.524 244.855 11.284C244.255 11.044 243.607 10.852 242.911 10.708C242.239 10.564 241.519 10.492 240.751 10.492C238.519 10.492 236.875 10.924 235.819 11.788C234.787 12.628 234.271 13.78 234.271 15.244C234.271 16.252 234.511 17.044 234.991 17.62C235.495 18.196 236.275 18.664 237.331 19.024C238.387 19.384 239.731 19.756 241.363 20.14C243.187 20.524 244.759 20.98 246.079 21.508C247.399 22.036 248.419 22.756 249.139 23.668C249.859 24.556 250.219 25.768 250.219 27.304C250.219 28.48 249.991 29.5 249.535 30.364C249.079 31.228 248.443 31.948 247.627 32.524C246.811 33.1 245.839 33.532 244.711 33.82C243.583 34.084 242.347 34.216 241.003 34.216C239.683 34.216 238.411 34.084 237.187 33.82C235.987 33.532 234.847 33.124 233.767 32.596C232.687 32.044 231.679 31.348 230.743 30.508L232.003 28.456C232.459 28.936 232.999 29.392 233.623 29.824C234.271 30.232 234.979 30.604 235.747 30.94C236.539 31.276 237.379 31.54 238.267 31.732C239.179 31.9 240.115 31.984 241.075 31.984C243.115 31.984 244.699 31.612 245.827 30.868C246.979 30.124 247.555 29.02 247.555 27.556C247.555 26.5 247.267 25.66 246.691 25.036C246.115 24.388 245.251 23.86 244.099 23.452C242.947 23.044 241.531 22.648 239.851 22.264C238.075 21.856 236.575 21.4 235.351 20.896C234.127 20.392 233.203 19.732 232.579 18.916C231.979 18.076 231.679 16.972 231.679 15.604C231.679 14.02 232.063 12.688 232.831 11.608C233.623 10.504 234.703 9.676 236.071 9.124C237.439 8.548 239.011 8.26 240.787 8.26C241.915 8.26 242.959 8.38 243.919 8.62C244.903 8.836 245.803 9.16 246.619 9.592C247.459 10.024 248.239 10.564 248.959 11.212L247.735 13.228Z" fill="#F5F5F5"/>
<path d="M110.368 48.636V57H109.276V53.208H105.016V57H103.924V48.636H105.016V52.308H109.276V48.636H110.368ZM116.745 57.084C115.969 57.084 115.261 56.904 114.621 56.544C113.981 56.176 113.473 55.668 113.097 55.02C112.729 54.364 112.545 53.628 112.545 52.812C112.545 51.996 112.729 51.264 113.097 50.616C113.473 49.96 113.981 49.452 114.621 49.092C115.261 48.724 115.969 48.54 116.745 48.54C117.529 48.54 118.241 48.724 118.881 49.092C119.521 49.452 120.025 49.956 120.393 50.604C120.761 51.252 120.945 51.988 120.945 52.812C120.945 53.636 120.761 54.372 120.393 55.02C120.025 55.668 119.521 56.176 118.881 56.544C118.241 56.904 117.529 57.084 116.745 57.084ZM116.745 56.136C117.329 56.136 117.853 56 118.317 55.728C118.789 55.456 119.157 55.068 119.421 54.564C119.693 54.06 119.829 53.476 119.829 52.812C119.829 52.14 119.693 51.556 119.421 51.06C119.157 50.556 118.793 50.168 118.329 49.896C117.865 49.624 117.337 49.488 116.745 49.488C116.153 49.488 115.625 49.624 115.161 49.896C114.697 50.168 114.329 50.556 114.057 51.06C113.793 51.556 113.661 52.14 113.661 52.812C113.661 53.476 113.793 54.06 114.057 54.564C114.329 55.068 114.697 55.456 115.161 55.728C115.633 56 116.161 56.136 116.745 56.136ZM128.254 48.636V49.524H125.974V57H124.882V49.524H122.59V48.636H128.254ZM131.41 49.524V52.32H134.458V53.22H131.41V56.1H134.818V57H130.318V48.624H134.818V49.524H131.41ZM138.283 56.112H141.211V57H137.191V48.636H138.283V56.112ZM145.742 57.084C145.19 57.084 144.694 56.988 144.254 56.796C143.822 56.596 143.482 56.324 143.234 55.98C142.986 55.628 142.858 55.224 142.85 54.768H144.014C144.054 55.16 144.214 55.492 144.494 55.764C144.782 56.028 145.198 56.16 145.742 56.16C146.262 56.16 146.67 56.032 146.966 55.776C147.27 55.512 147.422 55.176 147.422 54.768C147.422 54.448 147.334 54.188 147.158 53.988C146.982 53.788 146.762 53.636 146.498 53.532C146.234 53.428 145.878 53.316 145.43 53.196C144.878 53.052 144.434 52.908 144.098 52.764C143.77 52.62 143.486 52.396 143.246 52.092C143.014 51.78 142.898 51.364 142.898 50.844C142.898 50.388 143.014 49.984 143.246 49.632C143.478 49.28 143.802 49.008 144.218 48.816C144.642 48.624 145.126 48.528 145.67 48.528C146.454 48.528 147.094 48.724 147.59 49.116C148.094 49.508 148.378 50.028 148.442 50.676H147.242C147.202 50.356 147.034 50.076 146.738 49.836C146.442 49.588 146.05 49.464 145.562 49.464C145.106 49.464 144.734 49.584 144.446 49.824C144.158 50.056 144.014 50.384 144.014 50.808C144.014 51.112 144.098 51.36 144.266 51.552C144.442 51.744 144.654 51.892 144.902 51.996C145.158 52.092 145.514 52.204 145.97 52.332C146.522 52.484 146.966 52.636 147.302 52.788C147.638 52.932 147.926 53.16 148.166 53.472C148.406 53.776 148.526 54.192 148.526 54.72C148.526 55.128 148.418 55.512 148.202 55.872C147.986 56.232 147.666 56.524 147.242 56.748C146.818 56.972 146.318 57.084 145.742 57.084Z" fill="#F5F5F5"/>
<line x1="24" y1="52.5" x2="88.0078" y2="52.5" stroke="#F5F5F5"/>
<line x1="163" y1="50.5" x2="227.008" y2="50.5" stroke="#F5F5F5"/>
</svg>
